<svg xmlns="http://www.w3.org/2000/svg" width="12" height="12" viewBox="0 0 12 12"><g><g><path fill="#a9a8a8" d="M9.04 7.816l3.084 3.096-1.212 1.212L7.828 9.04c-.858.583-1.828.906-2.848.906-1.368 0-2.537-.486-3.509-1.457C.5 7.517.014 6.348.014 4.979c0-1.367.486-2.536 1.457-3.508C2.443.5 3.612.014 4.98.014c1.368 0 2.538.486 3.509 1.457.971.972 1.457 2.141 1.457 3.509a4.942 4.942 0 0 1-.906 2.836zm-1.535-.311c.643-.644.934-1.61.934-2.525 0-.915-.29-1.82-.934-2.468-.644-.648-1.61-1.003-2.525-1.003-.915 0-1.852.324-2.5.971-.647.648-.97 1.585-.97 2.5s.323 1.881.97 2.525c.648.643 1.585.996 2.5.996s1.881-.353 2.525-.996z"/></g></g></svg>