<svg xmlns="http://www.w3.org/2000/svg" width="14" height="11" viewBox="0 0 14 11"><g><g><path fill="#d7d7d7" d="M14 1.302a5.873 5.873 0 0 1-1.65.437A2.803 2.803 0 0 0 13.615.203c-.555.318-1.17.55-1.824.674A2.917 2.917 0 0 0 9.693 0C8.107 0 6.82 1.243 6.82 2.777c0 .217.026.43.075.632A8.247 8.247 0 0 1 .975.51c-.248.41-.39.887-.39 1.395 0 .964.507 1.813 1.278 2.312a2.934 2.934 0 0 1-1.301-.348v.035c0 1.345.99 2.468 2.304 2.723a2.977 2.977 0 0 1-1.297.048c.365 1.103 1.426 1.905 2.683 1.928A5.893 5.893 0 0 1 .684 9.791c-.231 0-.46-.014-.685-.04A8.333 8.333 0 0 0 4.403 11c5.283 0 8.173-4.232 8.173-7.901 0-.12-.003-.24-.009-.36a5.736 5.736 0 0 0 1.434-1.437"/></g></g></svg>