<svg xmlns="http://www.w3.org/2000/svg" width="14" height="11" viewBox="0 0 14 11"><g><g><path fill="#4bb8f0" d="M14 1.302a5.868 5.868 0 0 1-1.65.437A2.801 2.801 0 0 0 13.615.203c-.555.318-1.17.549-1.824.673A2.916 2.916 0 0 0 9.693 0C8.107 0 6.82 1.243 6.82 2.777c0 .217.026.429.075.633A8.25 8.25 0 0 1 .975.508c-.248.41-.39.888-.39 1.396 0 .964.507 1.813 1.278 2.311a2.946 2.946 0 0 1-1.301-.347v.035c0 1.345.99 2.468 2.304 2.723a2.99 2.99 0 0 1-1.297.047c.365 1.104 1.426 1.907 2.683 1.929A5.895 5.895 0 0 1 .684 9.79c-.231 0-.46-.013-.685-.039A8.33 8.33 0 0 0 4.403 11c5.283 0 8.173-4.232 8.173-7.901 0-.12-.003-.24-.009-.36a5.726 5.726 0 0 0 1.434-1.437"/></g></g></svg>